# xmcd CD database file
#
# Track frame offsets:
#	150
#	21093
#	43384
#	61134
#	80208
#	98179
#	114949
#
# Disc length: 1833 seconds
#
# Revision: 3
# Processed by: cddbd v1.5.2PL0 Copyright (c) Steve Scherf et al.
# Submitted via: CDex 2.21
#
DISCID=57072707
DTITLE=Lari White - New Loves
DYEAR=2017
DGENRE=Country
TTITLE0=Who's to Blame
TTITLE1=Kisses and Wine
TTITLE2=Maybe It's Love
TTITLE3=Moonshine
TTITLE4=In God's Hands
TTITLE5=Down so Low
TTITLE6=Champagne (feat. Victor Wooten)
EXTD=YEAR: 2017
EXTT0=
EXTT1=
EXTT2=
EXTT3=
EXTT4=
EXTT5=
EXTT6=
PLAYORDER=
